<svg width="12" height="12" viewBox="0 0 12 12" fill="none" xmlns="http://www.w3.org/2000/svg">
<g clip-path="url(#clip0_4516_431)">
<path fill-rule="evenodd" clip-rule="evenodd" d="M3.85095 7.04363L9.59023 0.906097C9.60879 0.88416 9.6341 0.867284 9.66111 0.857159L11.7165 0.0167711C11.7925 -0.0136044 11.8802 0.00327085 11.9376 0.0623343C11.995 0.11971 12.0135 0.207462 11.9815 0.2834L11.1444 2.33881C11.1326 2.36581 11.1158 2.39112 11.0938 2.41137L4.95628 8.14896L3.85095 7.04363Z" fill="#920404"/>
<path fill-rule="evenodd" clip-rule="evenodd" d="M1.30273 9.57145L2.59369 8.27881L3.72096 9.40608L2.43 10.6987L1.30273 9.57145Z" fill="#920404"/>
<path fill-rule="evenodd" clip-rule="evenodd" d="M4.60356 9.9177C4.55294 9.9177 4.50062 9.89745 4.46012 9.85863L2.14315 7.53997C2.10434 7.50285 2.0824 7.45053 2.0824 7.39653C2.0824 7.34253 2.10434 7.29022 2.14315 7.25309L2.8131 6.58146C2.89241 6.50214 3.02235 6.50214 3.10166 6.58146L5.42032 8.89843C5.45745 8.93724 5.47939 8.98956 5.47939 9.04356C5.47939 9.09756 5.45745 9.14819 5.42032 9.187L4.74869 9.85863C4.70819 9.89745 4.65588 9.9177 4.60356 9.9177Z" fill="#920404"/>
<path fill-rule="evenodd" clip-rule="evenodd" d="M1.63526 11.9985C1.58126 11.9985 1.52894 11.9766 1.49182 11.9377L0.0624814 10.5101C0.0236683 10.4713 0.00341797 10.419 0.00341797 10.365C0.00341797 10.311 0.0236683 10.2587 0.0624814 10.2215L0.720617 9.56339C0.79993 9.48408 0.928182 9.48408 1.0075 9.56339L2.43683 10.9927C2.51614 11.072 2.51614 11.202 2.43683 11.2813L1.78038 11.9377C1.74157 11.9766 1.68926 11.9985 1.63526 11.9985Z" fill="#920404"/>
<path fill-rule="evenodd" clip-rule="evenodd" d="M4.64069 5.90286L0.906196 2.41137C0.884258 2.39112 0.867383 2.36581 0.857258 2.33881L0.0185572 0.2834C-0.0135058 0.207462 0.00505698 0.11971 0.0624329 0.0623343C0.119809 0.00327085 0.20756 -0.0136044 0.283499 0.0167711L2.33891 0.857159C2.36591 0.867284 2.39122 0.88416 2.41147 0.906097L5.86077 4.5984L4.64069 5.90286Z" fill="#920404"/>
<path fill-rule="evenodd" clip-rule="evenodd" d="M7.04378 8.14916L6.14771 7.31215L7.34922 6.18994L8.14911 7.04383L7.04378 8.14916Z" fill="#920404"/>
<path fill-rule="evenodd" clip-rule="evenodd" d="M9.5717 10.6987L8.27905 9.40608L9.40632 8.27881L10.6973 9.57145L9.5717 10.6987Z" fill="#920404"/>
<path fill-rule="evenodd" clip-rule="evenodd" d="M7.39646 9.9177C7.34414 9.9177 7.29183 9.89745 7.25133 9.85863L6.58138 9.187C6.54257 9.14819 6.52063 9.09756 6.52063 9.04356C6.52063 8.98956 6.54257 8.93724 6.58138 8.89843L8.89835 6.58146C8.97767 6.50214 9.10761 6.50214 9.18692 6.58146L9.85856 7.25309C9.89568 7.29022 9.91762 7.34253 9.91762 7.39653C9.91762 7.45053 9.89568 7.50285 9.85856 7.53997L7.5399 9.85863C7.4994 9.89745 7.44877 9.9177 7.39646 9.9177Z" fill="#920404"/>
<path fill-rule="evenodd" clip-rule="evenodd" d="M10.3648 11.9985C10.3108 11.9985 10.2585 11.9766 10.2214 11.9377L9.56327 11.2813C9.48396 11.202 9.48396 11.072 9.56327 10.9927L10.9926 9.56339C11.0719 9.48408 11.2002 9.48408 11.2795 9.56339L11.9376 10.2215C11.9764 10.2587 11.9967 10.311 11.9967 10.365C11.9967 10.419 11.9764 10.4713 11.9376 10.5101L10.5083 11.9377C10.4712 11.9766 10.4188 11.9985 10.3648 11.9985Z" fill="#920404"/>
</g>
<defs>
<clipPath id="clip0_4516_431">
<rect width="12" height="12" fill="white"/>
</clipPath>
</defs>
</svg>
